<svg version="1.1" id="Layer_1" xmlns="http://www.w3.org/2000/svg" xmlns:xlink="http://www.w3.org/1999/xlink" x="0px" y="0px"
	 width="100%" viewBox="0 0 512 175" enable-background="new 0 0 512 175" xml:space="preserve">
<path fill="#000000" opacity="1.000000" stroke="none" 
	d="
M513.000000,105.000000 
	C513.000000,128.659027 513.000000,152.318039 513.000000,175.982788 
	C342.396118,175.988525 171.792252,175.988525 1.094189,175.988525 
	C1.094189,117.748444 1.094189,59.496681 1.094189,1.122461 
	C171.666611,1.122461 342.333282,1.122461 513.000000,1.122461 
	C513.000000,28.413881 513.000000,55.738281 512.740723,83.861923 
	C512.022644,84.204185 511.437195,83.820564 511.123566,83.279419 
	C504.796295,72.362694 489.379425,70.308807 480.404724,79.048058 
	C473.558380,85.714828 472.993469,93.692940 475.658752,102.046349 
	C478.337494,110.441856 486.891602,115.380684 496.885956,114.282448 
	C503.698303,113.533867 508.135498,110.439056 511.619080,105.059822 
	C511.764191,104.835762 512.525696,105.010857 513.000000,105.000000 
M35.024574,152.508148 
	C39.231735,155.312332 43.226566,158.523758 47.684048,160.847855 
	C64.052696,169.382355 81.416115,171.763885 99.688698,169.091156 
	C115.066963,166.841751 128.662338,160.506287 139.927002,150.318588 
	C162.509521,129.895111 172.568787,104.143303 167.856033,73.769257 
	C163.527420,45.870949 147.973724,25.313408 123.171791,12.137671 
	C106.109535,3.073544 87.637070,1.378415 68.869797,5.167685 
	C50.437279,8.889366 34.829266,18.313374 23.007812,32.749657 
	C4.778512,55.011166 -0.876459,80.760803 6.211753,108.659912 
	C9.389082,121.165825 14.756768,133.024521 25.477863,142.205734 
	C28.511023,145.448547 31.544182,148.691376 35.024574,152.508148 
M210.627762,113.185524 
	C218.277023,115.492241 225.650345,115.175682 232.713730,111.075752 
	C238.800171,107.542892 240.641296,101.936768 239.900421,95.494987 
	C239.276169,90.067329 236.425430,86.092445 230.560959,84.824577 
	C225.476730,83.725388 220.265427,82.757492 215.510666,80.772514 
	C212.913467,79.688263 210.053970,76.941200 209.279083,74.354889 
	C208.279755,71.019463 211.225800,68.992348 214.602356,67.944939 
	C221.557541,65.787460 226.244598,68.096024 229.847641,75.736679 
	C232.855392,75.736679 235.810669,75.736679 240.122879,75.736679 
	C238.227158,71.891716 237.152939,68.420670 235.065811,65.737541 
	C230.080338,59.328445 222.716721,58.162308 215.364807,59.146561 
	C205.849579,60.420433 199.879654,65.810783 199.110626,74.817734 
	C198.434998,82.730659 204.428757,88.436249 213.830170,90.056915 
	C217.987930,90.773651 222.272064,91.544083 226.064377,93.253777 
	C227.893585,94.078438 229.688965,97.122658 229.711777,99.181641 
	C229.732834,101.084473 227.796738,103.870392 225.977615,104.783928 
	C217.853073,108.863968 209.865143,105.018173 207.319489,96.414879 
	C204.216614,96.414879 201.184555,96.414879 197.938263,96.414879 
	C199.242157,104.256889 202.368057,110.190224 210.627762,113.185524 
M385.048492,97.378197 
	C386.076080,104.549873 389.511780,109.860146 396.409668,112.794563 
	C401.929596,115.142792 407.627045,114.936340 413.200043,113.894943 
	C424.200806,111.839279 429.243835,100.661255 425.986664,92.349403 
	C423.493927,85.988098 417.805450,84.443001 412.055756,83.031303 
	C408.569214,82.175270 404.703949,82.157990 401.626068,80.568581 
	C399.253693,79.343491 396.999084,76.516571 396.205383,73.936394 
	C395.069427,70.243645 398.546204,69.017982 401.415405,68.025131 
	C408.344025,65.627541 413.405884,68.209549 416.638153,75.590752 
	C419.769867,75.590752 422.809967,75.590752 425.887604,75.590752 
	C423.772217,63.608624 418.509033,61.482098 409.819611,59.171669 
	C402.167023,57.136921 392.017609,61.007866 388.968597,66.130577 
	C383.163666,75.883583 385.487122,86.821022 399.353302,89.935829 
	C403.172058,90.793648 407.106018,91.160065 410.899689,92.103416 
	C416.526428,93.502563 418.894806,99.227051 415.581818,102.930290 
	C411.271118,107.748695 398.583191,107.185555 396.421783,101.312569 
	C394.018158,94.781548 390.034515,95.549454 385.048492,97.378197 
M245.999374,122.415855 
	C245.999374,124.847061 245.999374,127.278259 245.999374,129.759140 
	C249.286118,129.759140 251.882111,129.759140 255.000626,129.759140 
	C255.000626,126.416542 255.000626,123.296333 255.000626,120.176125 
	C255.000626,117.067711 255.000626,113.959297 255.000626,110.582695 
	C266.106720,118.259415 276.156403,114.283005 281.684845,107.836044 
	C287.465729,101.094711 287.815887,86.776123 281.638214,80.390686 
	C278.937225,77.598846 275.102509,75.017380 271.398926,74.287544 
	C265.694733,73.163460 259.511322,73.158676 255.097839,79.553307 
	C254.330307,77.030708 253.884705,75.566216 253.497910,74.294983 
	C250.917480,74.294983 248.656952,74.294983 245.999374,74.294983 
	C245.999374,90.203262 245.999374,105.820671 245.999374,122.415855 
M469.992279,93.404137 
	C470.945038,81.651505 462.504913,74.455254 453.676971,73.995544 
	C437.496826,73.152977 432.061005,80.667191 431.310944,92.265305 
	C430.382355,106.623871 436.833618,112.771286 450.340973,114.870331 
	C459.139099,116.237556 467.870667,109.124077 469.234497,100.111786 
	C466.402985,100.111786 463.588287,100.111786 460.813660,100.111786 
	C458.507690,105.256813 453.263214,108.125954 448.663025,106.826859 
	C443.620911,105.402954 440.990753,101.528038 441.571808,95.999756 
	C449.512390,95.999756 457.492401,96.085464 465.467438,95.923973 
	C466.975494,95.893433 468.463623,94.880676 469.992279,93.404137 
M307.159973,114.630379 
	C314.510162,115.961937 321.106293,114.052544 325.844574,108.459229 
	C333.135712,99.852371 332.912262,85.985207 323.665283,78.061356 
	C317.101532,72.436760 301.088257,71.372208 294.142639,81.367081 
	C289.719940,87.731430 288.814636,94.597878 291.410583,101.849274 
	C293.940491,108.916214 298.879364,113.188622 307.159973,114.630379 
M376.817596,105.996910 
	C375.218384,104.704109 372.342957,103.506813 372.237854,102.102211 
	C371.746826,95.539848 372.019989,88.920311 372.019989,81.766357 
	C375.719543,81.766357 378.776611,81.766357 381.699707,81.766357 
	C381.699707,78.926872 381.699707,76.661842 381.699707,73.825409 
	C378.357300,73.825409 375.292938,73.825409 371.858246,73.825409 
	C371.858246,69.980431 371.858246,66.713470 371.858246,63.349648 
	C368.736572,63.349648 366.029236,63.349648 363.007111,63.349648 
	C363.007111,76.995712 362.843231,90.297783 363.078033,103.592819 
	C363.191071,109.994926 365.987793,113.283875 371.401489,113.879982 
	C375.125275,114.290024 378.930725,113.958641 382.596130,113.958641 
	C382.596130,110.934120 382.596130,108.553329 382.596130,105.999077 
	C380.699402,105.999077 379.204681,105.999077 376.817596,105.996910 
M335.999542,96.498123 
	C335.999542,100.163269 335.998993,103.828423 335.999664,107.493568 
	C336.001129,115.594048 336.181549,115.743019 345.000153,114.442169 
	C345.000153,108.404495 344.677094,102.260185 345.070587,96.162117 
	C345.783997,85.107269 348.399780,82.317299 357.743896,82.876175 
	C358.016235,82.892464 358.306519,82.608459 359.330475,82.085464 
	C358.858673,79.706566 358.840393,75.152351 357.721375,74.863564 
	C355.061523,74.177155 351.832275,75.329422 348.932373,76.108421 
	C347.635559,76.456779 346.577332,77.693207 345.278351,78.621262 
	C345.018433,76.886742 344.810791,75.501122 344.631470,74.304573 
	C341.577942,74.304573 338.983490,74.304573 335.999542,74.304573 
	C335.999542,81.569054 335.999542,88.534073 335.999542,96.498123 
z"/>
<path fill="#E60000" opacity="1.000000" stroke="none" 
	d="
M513.000000,104.583336 
	C512.525696,105.010857 511.764191,104.835762 511.619080,105.059822 
	C508.135498,110.439056 503.698303,113.533867 496.885956,114.282448 
	C486.891602,115.380684 478.337494,110.441856 475.658752,102.046349 
	C472.993469,93.692940 473.558380,85.714828 480.404724,79.048058 
	C489.379425,70.308807 504.796295,72.362694 511.123566,83.279419 
	C511.437195,83.820564 512.022644,84.204185 512.740723,84.330582 
	C513.000000,87.692909 513.000000,91.385818 512.531372,95.539368 
	C502.761261,96.000008 493.459839,96.000008 483.999207,96.000008 
	C486.167114,106.048195 495.558441,110.721649 500.571045,104.426186 
	C504.372498,99.651833 508.386078,100.074867 513.000000,100.000000 
	C513.000000,101.388893 513.000000,102.777779 513.000000,104.583336 
M495.924072,81.434387 
	C489.522766,80.847267 486.105042,83.477402 485.021027,89.772575 
	C491.234802,89.772575 497.456757,89.772575 503.896973,89.772575 
	C503.606506,84.863068 500.945587,82.583786 495.924072,81.434387 
z"/>
<path fill="#000000" opacity="1.000000" stroke="none" 
	d="
M513.000000,99.600006 
	C508.386078,100.074867 504.372498,99.651833 500.571045,104.426186 
	C495.558441,110.721649 486.167114,106.048195 483.999207,96.000008 
	C493.459839,96.000008 502.761261,96.000008 512.531372,96.000000 
	C513.000000,97.066673 513.000000,98.133339 513.000000,99.600006 
z"/>
<path fill="#FE0101" opacity="1.000000" stroke="none" 
	d="
M24.849207,141.939804 
	C14.756768,133.024521 9.389082,121.165825 6.211753,108.659912 
	C-0.876459,80.760803 4.778512,55.011166 23.007812,32.749657 
	C34.829266,18.313374 50.437279,8.889366 68.869797,5.167685 
	C87.637070,1.378415 106.109535,3.073544 123.171791,12.137671 
	C147.973724,25.313408 163.527420,45.870949 167.856033,73.769257 
	C172.568787,104.143303 162.509521,129.895111 139.927002,150.318588 
	C128.662338,160.506287 115.066963,166.841751 99.688698,169.091156 
	C81.416115,171.763885 64.052696,169.382355 47.684048,160.847855 
	C43.226566,158.523758 39.231735,155.312332 34.933178,151.896484 
	C46.104370,138.150970 57.347042,124.999878 68.663834,111.912872 
	C69.670250,110.749031 71.351059,109.015701 72.392937,109.218697 
	C80.276649,110.754692 88.078964,112.708481 96.378319,114.641762 
	C90.855537,123.379463 85.793037,131.387314 80.732262,139.396240 
	C77.495064,144.519257 77.786240,148.354843 81.586494,150.693695 
	C85.264015,152.957062 88.715569,151.701233 91.799408,146.804688 
	C98.360199,136.387390 104.893700,125.952515 111.370682,115.482956 
	C115.670540,108.532570 114.062660,104.914154 106.037163,103.028137 
	C100.627388,101.756828 95.235931,100.407555 89.295547,98.961525 
	C95.294228,89.506660 100.840614,80.764702 106.739655,71.466896 
	C110.368340,77.170860 113.566986,82.199745 116.766640,87.227997 
	C118.521378,89.985558 120.822571,92.177063 124.154922,90.257019 
	C132.802948,85.274200 141.400711,80.175034 149.697250,74.640678 
	C151.047607,73.739906 151.793259,69.769516 150.940720,68.330009 
	C150.065659,66.852531 146.918533,66.354919 144.706131,66.179199 
	C143.475616,66.081467 142.112518,67.496574 140.828079,68.261612 
	C135.154907,71.640648 129.488602,75.031212 123.627083,78.532738 
	C122.531372,76.408546 121.778336,74.743118 120.848976,73.182701 
	C116.893768,66.541809 115.153763,58.189552 107.928452,54.012672 
	C97.157433,47.786049 86.126160,41.990040 75.002083,36.417076 
	C73.509033,35.669083 70.279602,36.643822 68.793709,37.917133 
	C61.085026,44.522957 53.667984,51.470108 46.178341,58.330013 
	C43.520271,60.764595 41.482483,63.555328 44.774406,66.808655 
	C47.913296,69.910751 50.707493,68.215942 53.430515,65.701805 
	C59.423584,60.168461 65.503296,54.726139 71.658691,49.374393 
	C72.617317,48.540932 74.486343,47.640110 75.379585,48.032707 
	C80.035057,50.078884 84.511147,52.533199 90.017746,55.338696 
	C78.194214,72.364899 67.250656,89.045799 55.330868,104.997192 
	C45.785488,117.771088 35.054188,129.658798 24.849207,141.939804 
M110.000908,29.783073 
	C106.026543,37.958672 108.129662,45.833405 115.270943,49.515697 
	C122.005692,52.988369 130.253387,50.441559 133.752365,43.808826 
	C136.934647,37.776421 135.037750,29.908028 129.455414,25.984907 
	C123.223244,21.605106 116.533722,22.709553 110.000908,29.783073 
z"/>
<path fill="#070203" opacity="1.000000" stroke="none" 
	d="
M25.163534,142.072769 
	C35.054188,129.658798 45.785488,117.771088 55.330868,104.997192 
	C67.250656,89.045799 78.194214,72.364899 90.017746,55.338696 
	C84.511147,52.533199 80.035057,50.078884 75.379585,48.032707 
	C74.486343,47.640110 72.617317,48.540932 71.658691,49.374393 
	C65.503296,54.726139 59.423584,60.168461 53.430515,65.701805 
	C50.707493,68.215942 47.913296,69.910751 44.774406,66.808655 
	C41.482483,63.555328 43.520271,60.764595 46.178341,58.330013 
	C53.667984,51.470108 61.085026,44.522957 68.793709,37.917133 
	C70.279602,36.643822 73.509033,35.669083 75.002083,36.417076 
	C86.126160,41.990040 97.157433,47.786049 107.928452,54.012672 
	C115.153763,58.189552 116.893768,66.541809 120.848976,73.182701 
	C121.778336,74.743118 122.531372,76.408546 123.627083,78.532738 
	C129.488602,75.031212 135.154907,71.640648 140.828079,68.261612 
	C142.112518,67.496574 143.475616,66.081467 144.706131,66.179199 
	C146.918533,66.354919 150.065659,66.852531 150.940720,68.330009 
	C151.793259,69.769516 151.047607,73.739906 149.697250,74.640678 
	C141.400711,80.175034 132.802948,85.274200 124.154922,90.257019 
	C120.822571,92.177063 118.521378,89.985558 116.766640,87.227997 
	C113.566986,82.199745 110.368340,77.170860 106.739655,71.466896 
	C100.840614,80.764702 95.294228,89.506660 89.295547,98.961525 
	C95.235931,100.407555 100.627388,101.756828 106.037163,103.028137 
	C114.062660,104.914154 115.670540,108.532570 111.370682,115.482956 
	C104.893700,125.952515 98.360199,136.387390 91.799408,146.804688 
	C88.715569,151.701233 85.264015,152.957062 81.586494,150.693695 
	C77.786240,148.354843 77.495064,144.519257 80.732262,139.396240 
	C85.793037,131.387314 90.855537,123.379463 96.378319,114.641762 
	C88.078964,112.708481 80.276649,110.754692 72.392937,109.218697 
	C71.351059,109.015701 69.670250,110.749031 68.663834,111.912872 
	C57.347042,124.999878 46.104370,138.150970 34.709560,151.609512 
	C31.544182,148.691376 28.511023,145.448547 25.163534,142.072769 
z"/>
<path fill="#E60000" opacity="1.000000" stroke="none" 
	d="
M210.243454,113.074570 
	C202.368057,110.190224 199.242157,104.256889 197.938263,96.414879 
	C201.184555,96.414879 204.216614,96.414879 207.319489,96.414879 
	C209.865143,105.018173 217.853073,108.863968 225.977615,104.783928 
	C227.796738,103.870392 229.732834,101.084473 229.711777,99.181641 
	C229.688965,97.122658 227.893585,94.078438 226.064377,93.253777 
	C222.272064,91.544083 217.987930,90.773651 213.830170,90.056915 
	C204.428757,88.436249 198.434998,82.730659 199.110626,74.817734 
	C199.879654,65.810783 205.849579,60.420433 215.364807,59.146561 
	C222.716721,58.162308 230.080338,59.328445 235.065811,65.737541 
	C237.152939,68.420670 238.227158,71.891716 240.122879,75.736679 
	C235.810669,75.736679 232.855392,75.736679 229.847641,75.736679 
	C226.244598,68.096024 221.557541,65.787460 214.602356,67.944939 
	C211.225800,68.992348 208.279755,71.019463 209.279083,74.354889 
	C210.053970,76.941200 212.913467,79.688263 215.510666,80.772514 
	C220.265427,82.757492 225.476730,83.725388 230.560959,84.824577 
	C236.425430,86.092445 239.276169,90.067329 239.900421,95.494987 
	C240.641296,101.936768 238.800171,107.542892 232.713730,111.075752 
	C225.650345,115.175682 218.277023,115.492241 210.243454,113.074570 
z"/>
<path fill="#E60000" opacity="1.000000" stroke="none" 
	d="
M385.137207,96.957657 
	C390.034515,95.549454 394.018158,94.781548 396.421783,101.312569 
	C398.583191,107.185555 411.271118,107.748695 415.581818,102.930290 
	C418.894806,99.227051 416.526428,93.502563 410.899689,92.103416 
	C407.106018,91.160065 403.172058,90.793648 399.353302,89.935829 
	C385.487122,86.821022 383.163666,75.883583 388.968597,66.130577 
	C392.017609,61.007866 402.167023,57.136921 409.819611,59.171669 
	C418.509033,61.482098 423.772217,63.608624 425.887604,75.590752 
	C422.809967,75.590752 419.769867,75.590752 416.638153,75.590752 
	C413.405884,68.209549 408.344025,65.627541 401.415405,68.025131 
	C398.546204,69.017982 395.069427,70.243645 396.205383,73.936394 
	C396.999084,76.516571 399.253693,79.343491 401.626068,80.568581 
	C404.703949,82.157990 408.569214,82.175270 412.055756,83.031303 
	C417.805450,84.443001 423.493927,85.988098 425.986664,92.349403 
	C429.243835,100.661255 424.200806,111.839279 413.200043,113.894943 
	C407.627045,114.936340 401.929596,115.142792 396.409668,112.794563 
	C389.511780,109.860146 386.076080,104.549873 385.137207,96.957657 
z"/>
<path fill="#E60000" opacity="1.000000" stroke="none" 
	d="
M245.999374,121.926971 
	C245.999374,105.820671 245.999374,90.203262 245.999374,74.294983 
	C248.656952,74.294983 250.917480,74.294983 253.497910,74.294983 
	C253.884705,75.566216 254.330307,77.030708 255.097839,79.553307 
	C259.511322,73.158676 265.694733,73.163460 271.398926,74.287544 
	C275.102509,75.017380 278.937225,77.598846 281.638214,80.390686 
	C287.815887,86.776123 287.465729,101.094711 281.684845,107.836044 
	C276.156403,114.283005 266.106720,118.259415 255.000626,110.582695 
	C255.000626,113.959297 255.000626,117.067711 255.000626,120.176125 
	C255.000626,123.296333 255.000626,126.416542 255.000626,129.759140 
	C251.882111,129.759140 249.286118,129.759140 245.999374,129.759140 
	C245.999374,127.278259 245.999374,124.847061 245.999374,121.926971 
M256.844330,101.416824 
	C260.160767,106.560555 264.876495,108.260132 269.752106,106.068848 
	C274.945648,103.734673 278.194214,96.904549 276.726746,91.404739 
	C275.010559,84.972771 271.818451,82.351410 265.871857,81.961365 
	C260.616577,81.616684 257.087097,84.095497 256.144257,88.867317 
	C255.390244,92.683411 256.214233,96.811295 256.844330,101.416824 
z"/>
<path fill="#E60000" opacity="1.000000" stroke="none" 
	d="
M469.976624,93.862640 
	C468.463623,94.880676 466.975494,95.893433 465.467438,95.923973 
	C457.492401,96.085464 449.512390,95.999756 441.571808,95.999756 
	C440.990753,101.528038 443.620911,105.402954 448.663025,106.826859 
	C453.263214,108.125954 458.507690,105.256813 460.813660,100.111786 
	C463.588287,100.111786 466.402985,100.111786 469.234497,100.111786 
	C467.870667,109.124077 459.139099,116.237556 450.340973,114.870331 
	C436.833618,112.771286 430.382355,106.623871 431.310944,92.265305 
	C432.061005,80.667191 437.496826,73.152977 453.676971,73.995544 
	C462.504913,74.455254 470.945038,81.651505 469.976624,93.862640 
M458.469208,84.026222 
	C450.104401,79.101425 443.969330,81.071167 441.357513,89.579170 
	C447.848175,89.579170 454.310822,89.579170 461.123718,89.579170 
	C460.241547,87.617851 459.577240,86.140945 458.469208,84.026222 
z"/>
<path fill="#E60000" opacity="1.000000" stroke="none" 
	d="
M306.814087,114.381775 
	C298.879364,113.188622 293.940491,108.916214 291.410583,101.849274 
	C288.814636,94.597878 289.719940,87.731430 294.142639,81.367081 
	C301.088257,71.372208 317.101532,72.436760 323.665283,78.061356 
	C332.912262,85.985207 333.135712,99.852371 325.844574,108.459229 
	C321.106293,114.052544 314.510162,115.961937 306.814087,114.381775 
M309.663513,82.001343 
	C302.550140,82.088539 299.251312,88.421288 299.961334,96.214874 
	C300.505005,102.182724 305.237518,107.141182 310.687805,106.991638 
	C316.871887,106.821968 321.019867,101.545288 320.999298,93.874245 
	C320.977692,85.817574 317.774719,82.191322 309.663513,82.001343 
z"/>
<path fill="#E60000" opacity="1.000000" stroke="none" 
	d="
M377.263794,105.997993 
	C379.204681,105.999077 380.699402,105.999077 382.596130,105.999077 
	C382.596130,108.553329 382.596130,110.934120 382.596130,113.958641 
	C378.930725,113.958641 375.125275,114.290024 371.401489,113.879982 
	C365.987793,113.283875 363.191071,109.994926 363.078033,103.592819 
	C362.843231,90.297783 363.007111,76.995712 363.007111,63.349648 
	C366.029236,63.349648 368.736572,63.349648 371.858246,63.349648 
	C371.858246,66.713470 371.858246,69.980431 371.858246,73.825409 
	C375.292938,73.825409 378.357300,73.825409 381.699707,73.825409 
	C381.699707,76.661842 381.699707,78.926872 381.699707,81.766357 
	C378.776611,81.766357 375.719543,81.766357 372.019989,81.766357 
	C372.019989,88.920311 371.746826,95.539848 372.237854,102.102211 
	C372.342957,103.506813 375.218384,104.704109 377.263794,105.997993 
z"/>
<path fill="#E60000" opacity="1.000000" stroke="none" 
	d="
M335.999542,95.998604 
	C335.999542,88.534073 335.999542,81.569054 335.999542,74.304573 
	C338.983490,74.304573 341.577942,74.304573 344.631470,74.304573 
	C344.810791,75.501122 345.018433,76.886742 345.278351,78.621262 
	C346.577332,77.693207 347.635559,76.456779 348.932373,76.108421 
	C351.832275,75.329422 355.061523,74.177155 357.721375,74.863564 
	C358.840393,75.152351 358.858673,79.706566 359.330475,82.085464 
	C358.306519,82.608459 358.016235,82.892464 357.743896,82.876175 
	C348.399780,82.317299 345.783997,85.107269 345.070587,96.162117 
	C344.677094,102.260185 345.000153,108.404495 345.000153,114.442169 
	C336.181549,115.743019 336.001129,115.594048 335.999664,107.493568 
	C335.998993,103.828423 335.999542,100.163269 335.999542,95.998604 
z"/>
<path fill="#000000" opacity="1.000000" stroke="none" 
	d="
M496.251282,81.659424 
	C500.945587,82.583786 503.606506,84.863068 503.896973,89.772575 
	C497.456757,89.772575 491.234802,89.772575 485.021027,89.772575 
	C486.105042,83.477402 489.522766,80.847267 496.251282,81.659424 
z"/>
<path fill="#070203" opacity="1.000000" stroke="none" 
	d="
M110.197632,29.457489 
	C116.533722,22.709553 123.223244,21.605106 129.455414,25.984907 
	C135.037750,29.908028 136.934647,37.776421 133.752365,43.808826 
	C130.253387,50.441559 122.005692,52.988369 115.270943,49.515697 
	C108.129662,45.833405 106.026543,37.958672 110.197632,29.457489 
z"/>
<path fill="#000000" opacity="1.000000" stroke="none" 
	d="
M256.591064,101.108810 
	C256.214233,96.811295 255.390244,92.683411 256.144257,88.867317 
	C257.087097,84.095497 260.616577,81.616684 265.871857,81.961365 
	C271.818451,82.351410 275.010559,84.972771 276.726746,91.404739 
	C278.194214,96.904549 274.945648,103.734673 269.752106,106.068848 
	C264.876495,108.260132 260.160767,106.560555 256.591064,101.108810 
z"/>
<path fill="#000000" opacity="1.000000" stroke="none" 
	d="
M458.691101,84.345139 
	C459.577240,86.140945 460.241547,87.617851 461.123718,89.579170 
	C454.310822,89.579170 447.848175,89.579170 441.357513,89.579170 
	C443.969330,81.071167 450.104401,79.101425 458.691101,84.345139 
z"/>
<path fill="#000000" opacity="1.000000" stroke="none" 
	d="
M310.087830,82.001251 
	C317.774719,82.191322 320.977692,85.817574 320.999298,93.874245 
	C321.019867,101.545288 316.871887,106.821968 310.687805,106.991638 
	C305.237518,107.141182 300.505005,102.182724 299.961334,96.214874 
	C299.251312,88.421288 302.550140,82.088539 310.087830,82.001251 
z"/>
</svg>